<svg width="13" height="24" viewBox="0 0 13 24" fill="none" xmlns="http://www.w3.org/2000/svg">
<path d="M12.9779 23.859C12.9554 23.9531 12.866 24 12.7103 24H9.73336C9.55469 24 9.39907 23.9181 9.26513 23.7533L4.34825 17.163L2.97687 18.5374V23.6477C2.97687 23.8828 2.86506 24 2.64247 24H0.334515C0.111242 24 0 23.8828 0 23.6477V0.352225C0 0.117686 0.111242 0 0.334515 0H2.64247C2.86506 0 2.97687 0.117686 2.97687 0.352225V14.6959L8.86364 8.42271C9.0196 8.25873 9.17579 8.17615 9.33187 8.17615H12.4094C12.543 8.17615 12.632 8.23505 12.6768 8.35215C12.7213 8.49327 12.7102 8.59882 12.6433 8.66939L6.42186 15.0129L12.9109 23.5065C12.9998 23.6008 13.0223 23.7181 12.9779 23.859Z" fill="#20BEFF"/>
</svg>
